<svg width="512" height="512" viewBox="0 0 512 512" fill="none" xmlns="http://www.w3.org/2000/svg">
<g clip-path="url(#clip0_27_35)">
<rect width="512" height="512" fill="white"/>
<path d="M512 0H0V512H512V0Z" fill="#296912"/>
<path fill-rule="evenodd" clip-rule="evenodd" d="M238.913 50.2904L251.964 46.0505V32.33L260.028 43.4301L273.076 39.1902L265.012 50.2904L273.076 61.3905L260.028 57.1506L251.964 68.2507V54.5302L238.913 50.2904ZM147.532 76.1933L138.35 86.3903L151.771 83.537L158.632 95.4193L160.065 81.7742L173.486 78.9219L160.952 73.341L162.385 59.6959L153.205 69.8919L140.671 64.311L147.532 76.1933ZM69.309 167.935L72.1623 154.514L60.2799 147.653L73.9251 146.22L76.7774 132.799L82.3583 145.333L96.0034 143.9L85.8074 153.08L91.3883 165.614L79.5059 158.754L69.309 167.935ZM461.699 238.913L465.939 251.963H479.659L468.559 260.028L472.799 273.076L461.699 265.012L450.599 273.076L454.839 260.028L443.738 251.963H457.459L461.699 238.913ZM442.68 344.054L439.827 357.475L451.71 364.336L438.064 365.77L435.212 379.19L429.631 366.656L415.986 368.089L426.182 358.909L420.601 346.375L432.484 353.236L442.68 344.054ZM364.458 435.796L373.64 425.599L360.218 428.452L353.358 416.57L351.924 430.215L338.504 433.067L351.038 438.648L349.604 452.293L358.784 442.097L371.318 447.678L364.458 435.796ZM273.076 461.699L260.026 465.939V479.659L251.962 468.559L238.913 472.799L246.978 461.699L238.913 450.599L251.962 454.838L260.026 443.738V457.459L273.076 461.699ZM154.514 439.827L167.935 442.68L158.754 432.483L165.614 420.601L153.08 426.182L143.9 415.986L145.333 429.631L132.8 435.212L146.22 438.064L147.653 451.709L154.514 439.827ZM86.3903 373.639L76.1933 364.458L64.311 371.318L69.8919 358.784L59.6959 349.604L73.341 351.037L78.9219 338.504L81.7742 351.924L95.4193 353.357L83.537 360.218L86.3903 373.639ZM46.0506 260.026L50.2905 273.076L54.5304 260.026H68.2509L57.1507 251.962L61.3906 238.913L50.2905 246.977L39.1903 238.913L43.4302 251.962L32.3301 260.026H46.0506ZM357.476 72.1621L344.054 69.3089L353.236 79.5058L346.375 91.3881L358.909 85.8073L368.09 96.0033L366.656 82.3582L379.19 76.7773L365.77 73.925L364.336 60.2798L357.476 72.1621ZM425.599 138.35L435.796 147.531L447.678 140.671L442.097 153.205L452.293 162.385L438.648 160.952L433.067 173.485L430.215 160.065L416.57 158.632L428.452 151.771L425.599 138.35ZM256 131.9L263.33 173.587L258.52 178.168V249.81L304.57 194.929L303.83 188.328L336.241 161.105L315.06 197.75L308.431 198.168L259.289 256.732L308.577 315.471L315.824 316.268L341 346.272L330.351 345.34L329.42 355.989L304.243 325.985L304.717 318.71L258.52 263.655V335.525L263.559 340.793V379.961L256 372.402L248.442 379.961V340.793L253.481 335.525V263.654L207.283 318.71L207.757 325.985L182.581 355.989L181.649 345.34L171 346.272L196.177 316.268L203.423 315.471L252.711 256.732L203.57 198.168L196.941 197.75L175.76 161.105L208.17 188.328L207.43 194.929L253.481 249.81V178.168L248.671 173.587L256 131.9Z" fill="#FDFC02"/>
</g>
<defs>
<clipPath id="clip0_27_35">
<rect width="512" height="512" fill="white"/>
</clipPath>
</defs>
</svg>
