<svg xmlns="http://www.w3.org/2000/svg" width="40" height="40" fill="none" viewBox="0 0 40 40"><rect width="40" height="40" fill="#fff" rx="8"/><path fill="#000" fill-rule="evenodd" d="M10 11a3 3 0 0 1 3-3h9.33a2 2 0 0 1 1.43.6l7.67 7.85a2 2 0 0 1 .57 1.4V29a3 3 0 0 1-3 3H13a3 3 0 0 1-3-3v-1a1 1 0 1 1 2 0v1a1 1 0 0 0 1 1h16a1 1 0 0 0 1-1V18.44h-5.25a3 3 0 0 1-3-3V10H13a1 1 0 0 0-1 1v1a1 1 0 1 1-2 0v-1Zm13.75.45 4.87 4.99h-3.87a1 1 0 0 1-1-1v-3.99Zm-6.58 11.3a5 5 0 1 0-1.41 1.41l2.53 2.55a1 1 0 0 0 1.42-1.42l-2.54-2.53ZM16 20a3 3 0 1 1-6 0 3 3 0 0 1 6 0Z" clip-rule="evenodd"/></svg>