<svg width="512" height="512" viewBox="0 0 512 512" fill="none" xmlns="http://www.w3.org/2000/svg">
<g clip-path="url(#clip0_31_57)">
<rect width="512" height="512" fill="white"/>
<path d="M0 0H512V512H0V0Z" fill="white"/>
<path d="M0 0H512V171H0V0Z" fill="#ED2024"/>
<path d="M0 341H512V512H0V341Z" fill="#278E43"/>
<path d="M256 128L265.591 193.079L293.941 133.718L283.924 198.734L328.51 150.367L299.775 209.54L356.636 176.464L311.737 224.539L375.821 209.692L318.746 242.398L384.358 247.1L320.179 261.529L381.491 285.361L315.911 280.232L367.474 321.079L306.319 296.847L343.551 351.076L292.255 309.895L311.849 372.691L274.97 318.219L275.184 384L256 321.079L236.815 384L237.03 318.219L200.151 372.691L219.745 309.895L168.449 351.077L205.681 296.847L144.527 321.079L196.089 280.232L130.509 285.361L191.821 261.528L127.642 247.1L193.254 242.398L136.179 209.692L200.263 224.539L155.364 176.464L212.225 209.539L183.49 150.367L228.076 198.734L218.059 133.718L246.408 193.079L256 128Z" fill="#FEBD11"/>
</g>
<defs>
<clipPath id="clip0_31_57">
<rect width="512" height="512" fill="white"/>
</clipPath>
</defs>
</svg>
